<svg width="365" height="106" viewBox="0 0 365 106" fill="none" xmlns="http://www.w3.org/2000/svg">
<g filter="url(#filter0_d)">
<path d="M164.13 79.37C160.723 79.37 157.643 78.7867 154.89 77.62C152.183 76.4533 150.037 74.7733 148.45 72.58C146.863 70.3867 146.047 67.7967 146 64.81H156.5C156.64 66.8167 157.34 68.4033 158.6 69.57C159.907 70.7367 161.68 71.32 163.92 71.32C166.207 71.32 168.003 70.7833 169.31 69.71C170.617 68.59 171.27 67.1433 171.27 65.37C171.27 63.9233 170.827 62.7333 169.94 61.8C169.053 60.8667 167.933 60.1433 166.58 59.63C165.273 59.07 163.453 58.4633 161.12 57.81C157.947 56.8767 155.357 55.9667 153.35 55.08C151.39 54.1467 149.687 52.77 148.24 50.95C146.84 49.0833 146.14 46.61 146.14 43.53C146.14 40.6367 146.863 38.1167 148.31 35.97C149.757 33.8233 151.787 32.19 154.4 31.07C157.013 29.9033 160 29.32 163.36 29.32C168.4 29.32 172.483 30.5567 175.61 33.03C178.783 35.4567 180.533 38.8633 180.86 43.25H170.08C169.987 41.57 169.263 40.1933 167.91 39.12C166.603 38 164.853 37.44 162.66 37.44C160.747 37.44 159.207 37.93 158.04 38.91C156.92 39.89 156.36 41.3133 156.36 43.18C156.36 44.4867 156.78 45.5833 157.62 46.47C158.507 47.31 159.58 48.01 160.84 48.57C162.147 49.0833 163.967 49.69 166.3 50.39C169.473 51.3233 172.063 52.2567 174.07 53.19C176.077 54.1233 177.803 55.5233 179.25 57.39C180.697 59.2567 181.42 61.7067 181.42 64.74C181.42 67.3533 180.743 69.78 179.39 72.02C178.037 74.26 176.053 76.0567 173.44 77.41C170.827 78.7167 167.723 79.37 164.13 79.37Z" fill="#3BB920"/>
<path d="M194.886 35.48C193.16 35.48 191.713 34.9433 190.546 33.87C189.426 32.75 188.866 31.3733 188.866 29.74C188.866 28.1067 189.426 26.7533 190.546 25.68C191.713 24.56 193.16 24 194.886 24C196.613 24 198.036 24.56 199.156 25.68C200.323 26.7533 200.906 28.1067 200.906 29.74C200.906 31.3733 200.323 32.75 199.156 33.87C198.036 34.9433 196.613 35.48 194.886 35.48ZM199.716 40.1V78.88H189.916V40.1H199.716Z" fill="#3BB920"/>
<path d="M224.589 39.47C227.482 39.47 230.025 40.0533 232.219 41.22C234.412 42.34 236.139 43.81 237.399 45.63V40.1H247.269V79.16C247.269 82.7533 246.545 85.95 245.099 88.75C243.652 91.5967 241.482 93.8367 238.589 95.47C235.695 97.15 232.195 97.99 228.089 97.99C222.582 97.99 218.055 96.7067 214.509 94.14C211.009 91.5733 209.025 88.0733 208.559 83.64H218.289C218.802 85.4133 219.899 86.8133 221.579 87.84C223.305 88.9133 225.382 89.45 227.809 89.45C230.655 89.45 232.965 88.5867 234.739 86.86C236.512 85.18 237.399 82.6133 237.399 79.16V73.14C236.139 74.96 234.389 76.4767 232.149 77.69C229.955 78.9033 227.435 79.51 224.589 79.51C221.322 79.51 218.335 78.67 215.629 76.99C212.922 75.31 210.775 72.9533 209.189 69.92C207.649 66.84 206.879 63.3167 206.879 59.35C206.879 55.43 207.649 51.9533 209.189 48.92C210.775 45.8867 212.899 43.5533 215.559 41.92C218.265 40.2867 221.275 39.47 224.589 39.47ZM237.399 59.49C237.399 57.11 236.932 55.08 235.999 53.4C235.065 51.6733 233.805 50.3667 232.219 49.48C230.632 48.5467 228.929 48.08 227.109 48.08C225.289 48.08 223.609 48.5233 222.069 49.41C220.529 50.2967 219.269 51.6033 218.289 53.33C217.355 55.01 216.889 57.0167 216.889 59.35C216.889 61.6833 217.355 63.7367 218.289 65.51C219.269 67.2367 220.529 68.5667 222.069 69.5C223.655 70.4333 225.335 70.9 227.109 70.9C228.929 70.9 230.632 70.4567 232.219 69.57C233.805 68.6367 235.065 67.33 235.999 65.65C236.932 63.9233 237.399 61.87 237.399 59.49Z" fill="#3BB920"/>
<path d="M278.68 39.54C281.62 39.54 284.233 40.1933 286.52 41.5C288.807 42.76 290.58 44.65 291.84 47.17C293.147 49.6433 293.8 52.63 293.8 56.13V78.88H284V57.46C284 54.38 283.23 52.0233 281.69 50.39C280.15 48.71 278.05 47.87 275.39 47.87C272.683 47.87 270.537 48.71 268.95 50.39C267.41 52.0233 266.64 54.38 266.64 57.46V78.88H256.84V27.08H266.64V44.93C267.9 43.25 269.58 41.9433 271.68 41.01C273.78 40.03 276.113 39.54 278.68 39.54Z" fill="#3BB920"/>
<path d="M314.529 48.15V66.91C314.529 68.2167 314.833 69.1733 315.439 69.78C316.093 70.34 317.166 70.62 318.659 70.62H323.209V78.88H317.049C308.789 78.88 304.659 74.8667 304.659 66.84V48.15H300.039V40.1H304.659V30.51H314.529V40.1H323.209V48.15H314.529Z" fill="#3BB920"/>
<path d="M345.098 79.51C341.925 79.51 339.078 78.95 336.558 77.83C334.038 76.6633 332.031 75.1 330.538 73.14C329.091 71.18 328.298 69.01 328.158 66.63H338.028C338.215 68.1233 338.938 69.36 340.198 70.34C341.505 71.32 343.115 71.81 345.028 71.81C346.895 71.81 348.341 71.4367 349.368 70.69C350.441 69.9433 350.978 68.9867 350.978 67.82C350.978 66.56 350.325 65.6267 349.018 65.02C347.758 64.3667 345.728 63.6667 342.928 62.92C340.035 62.22 337.655 61.4967 335.788 60.75C333.968 60.0033 332.381 58.86 331.028 57.32C329.721 55.78 329.068 53.7033 329.068 51.09C329.068 48.9433 329.675 46.9833 330.888 45.21C332.148 43.4367 333.921 42.0367 336.208 41.01C338.541 39.9833 341.271 39.47 344.398 39.47C349.018 39.47 352.705 40.6367 355.458 42.97C358.211 45.2567 359.728 48.36 360.008 52.28H350.628C350.488 50.74 349.835 49.5267 348.668 48.64C347.548 47.7067 346.031 47.24 344.118 47.24C342.345 47.24 340.968 47.5667 339.988 48.22C339.055 48.8733 338.588 49.7833 338.588 50.95C338.588 52.2567 339.241 53.26 340.548 53.96C341.855 54.6133 343.885 55.29 346.638 55.99C349.438 56.69 351.748 57.4133 353.568 58.16C355.388 58.9067 356.951 60.0733 358.258 61.66C359.611 63.2 360.311 65.2533 360.358 67.82C360.358 70.06 359.728 72.0667 358.468 73.84C357.255 75.6133 355.481 77.0133 353.148 78.04C350.861 79.02 348.178 79.51 345.098 79.51Z" fill="#3BB920"/>
<path d="M35 28.14V36.05H14.63V48.58H30.24V56.35H14.63V77H4.83V28.14H35ZM85.1085 44.24C86.3685 42.1867 88.0019 40.5767 90.0085 39.41C92.0618 38.2433 94.3952 37.66 97.0085 37.66V47.95H94.4185C91.3385 47.95 89.0052 48.6733 87.4185 50.12C85.8785 51.5667 85.1085 54.0867 85.1085 57.68V77H75.3085V38.22H85.1085V44.24ZM139.659 56.77C139.659 58.17 139.566 59.43 139.379 60.55H111.029C111.263 63.35 112.243 65.5433 113.969 67.13C115.696 68.7167 117.819 69.51 120.339 69.51C123.979 69.51 126.569 67.9467 128.109 64.82H138.679C137.559 68.5533 135.413 71.6333 132.239 74.06C129.066 76.44 125.169 77.63 120.549 77.63C116.816 77.63 113.456 76.8133 110.469 75.18C107.529 73.5 105.219 71.1433 103.539 68.11C101.906 65.0767 101.089 61.5767 101.089 57.61C101.089 53.5967 101.906 50.0733 103.539 47.04C105.173 44.0067 107.459 41.6733 110.399 40.04C113.339 38.4067 116.723 37.59 120.549 37.59C124.236 37.59 127.526 38.3833 130.419 39.97C133.359 41.5567 135.623 43.82 137.209 46.76C138.843 49.6533 139.659 52.99 139.659 56.77ZM129.509 53.97C129.463 51.45 128.553 49.4433 126.779 47.95C125.006 46.41 122.836 45.64 120.269 45.64C117.843 45.64 115.789 46.3867 114.109 47.88C112.476 49.3267 111.473 51.3567 111.099 53.97H129.509Z" fill="#2F2E41"/>
<path d="M67.7169 74.6016L65.5257 74.2022L64.9058 73.3061C68.1771 70.6701 70.5441 66.901 71.3554 62.4498C73.1588 52.555 66.6 43.0727 56.7054 41.2693C46.8107 39.466 37.3282 46.0247 35.5249 55.9195C33.7215 65.8143 40.2802 75.2966 50.175 77.1C54.6262 77.9113 58.988 77.026 62.6061 74.9089L63.2259 75.805L62.8291 77.9824L74.1033 94.2474L78.9586 90.8891L67.7169 74.6016ZM51.1797 71.5876C44.3306 70.3393 39.789 63.7733 41.0373 56.9242C42.2856 50.0751 48.8516 45.5335 55.7007 46.7818C62.5498 48.0301 67.0914 54.5961 65.8431 61.4452C64.5948 68.2943 58.0288 72.8359 51.1797 71.5876Z" fill="#3BB920"/>
</g>
<defs>
<filter id="filter0_d" x="0.829956" y="24" width="363.528" height="81.99" filterUnits="userSpaceOnUse" color-interpolation-filters="sRGB">
<feFlood flood-opacity="0" result="BackgroundImageFix"/>
<feColorMatrix in="SourceAlpha" type="matrix" values="0 0 0 0 0 0 0 0 0 0 0 0 0 0 0 0 0 0 127 0"/>
<feOffset dy="4"/>
<feGaussianBlur stdDeviation="2"/>
<feColorMatrix type="matrix" values="0 0 0 0 0 0 0 0 0 0 0 0 0 0 0 0 0 0 0.25 0"/>
<feBlend mode="normal" in2="BackgroundImageFix" result="effect1_dropShadow"/>
<feBlend mode="normal" in="SourceGraphic" in2="effect1_dropShadow" result="shape"/>
</filter>
</defs>
</svg>
